<mxfile host="app.diagrams.net" agent="Mozilla/5.0 (Windows NT 10.0; Win64; x64) AppleWebKit/537.36 (KHTML, like Gecko) Chrome/130.0.0.0 Safari/537.36" version="24.7.17">
  <diagram id="C5RBs43oDa-KdzZeNtuy" name="Page-1">
    <mxGraphModel dx="1518" dy="655" grid="1" gridSize="10" guides="1" tooltips="1" connect="1" arrows="1" fold="1" page="1" pageScale="1" pageWidth="827" pageHeight="1169" math="0" shadow="0">
      <root>
        <mxCell id="WIyWlLk6GJQsqaUBKTNV-0" />
        <mxCell id="WIyWlLk6GJQsqaUBKTNV-1" parent="WIyWlLk6GJQsqaUBKTNV-0" />
        <mxCell id="Br_wjNeipKaUoqd5Id-3-2" value="" style="edgeStyle=orthogonalEdgeStyle;rounded=0;orthogonalLoop=1;jettySize=auto;html=1;" edge="1" parent="WIyWlLk6GJQsqaUBKTNV-1" source="Br_wjNeipKaUoqd5Id-3-0" target="Br_wjNeipKaUoqd5Id-3-1">
          <mxGeometry relative="1" as="geometry" />
        </mxCell>
        <mxCell id="Br_wjNeipKaUoqd5Id-3-0" value="Початок" style="ellipse;whiteSpace=wrap;html=1;" vertex="1" parent="WIyWlLk6GJQsqaUBKTNV-1">
          <mxGeometry x="320" y="40" width="160" height="80" as="geometry" />
        </mxCell>
        <mxCell id="Br_wjNeipKaUoqd5Id-3-4" value="" style="edgeStyle=orthogonalEdgeStyle;rounded=0;orthogonalLoop=1;jettySize=auto;html=1;" edge="1" parent="WIyWlLk6GJQsqaUBKTNV-1" source="Br_wjNeipKaUoqd5Id-3-1" target="Br_wjNeipKaUoqd5Id-3-3">
          <mxGeometry relative="1" as="geometry" />
        </mxCell>
        <mxCell id="Br_wjNeipKaUoqd5Id-3-1" value="&lt;div style=&quot;background-color:#1e1f22;color:#bcbec4&quot;&gt;&lt;pre style=&quot;font-family:&#39;JetBrains Mono&#39;,monospace;font-size:9,8pt;&quot;&gt;&lt;span style=&quot;color:#cf8e6d;&quot;&gt;for &lt;/span&gt;column &lt;span style=&quot;color:#cf8e6d;&quot;&gt;in &lt;/span&gt;&lt;/pre&gt;&lt;pre style=&quot;font-family:&#39;JetBrains Mono&#39;,monospace;font-size:9,8pt;&quot;&gt;&lt;span style=&quot;color:#8888c6;&quot;&gt;range&lt;/span&gt;(&lt;span style=&quot;color:#8888c6;&quot;&gt;len&lt;/span&gt;(matrix[&lt;span style=&quot;color:#2aacb8;&quot;&gt;0&lt;/span&gt;]))&lt;/pre&gt;&lt;/div&gt;" style="whiteSpace=wrap;html=1;" vertex="1" parent="WIyWlLk6GJQsqaUBKTNV-1">
          <mxGeometry x="320" y="160" width="160" height="60" as="geometry" />
        </mxCell>
        <mxCell id="Br_wjNeipKaUoqd5Id-3-6" value="" style="edgeStyle=orthogonalEdgeStyle;rounded=0;orthogonalLoop=1;jettySize=auto;html=1;" edge="1" parent="WIyWlLk6GJQsqaUBKTNV-1" source="Br_wjNeipKaUoqd5Id-3-3" target="Br_wjNeipKaUoqd5Id-3-5">
          <mxGeometry relative="1" as="geometry" />
        </mxCell>
        <mxCell id="Br_wjNeipKaUoqd5Id-3-3" value="&lt;div style=&quot;background-color:#1e1f22;color:#bcbec4&quot;&gt;&lt;pre style=&quot;font-family:&#39;JetBrains Mono&#39;,monospace;font-size:9,8pt;&quot;&gt;&lt;span style=&quot;color:#cf8e6d;&quot;&gt;for &lt;/span&gt;i &lt;span style=&quot;color:#cf8e6d;&quot;&gt;in&lt;/span&gt;&lt;/pre&gt;&lt;pre style=&quot;font-family:&#39;JetBrains Mono&#39;,monospace;font-size:9,8pt;&quot;&gt;&lt;span style=&quot;color:#cf8e6d;&quot;&gt; &lt;/span&gt;&lt;span style=&quot;color:#8888c6;&quot;&gt;range&lt;/span&gt;(&lt;span style=&quot;color:#8888c6;&quot;&gt;len&lt;/span&gt;(matrix))&lt;/pre&gt;&lt;/div&gt;" style="whiteSpace=wrap;html=1;" vertex="1" parent="WIyWlLk6GJQsqaUBKTNV-1">
          <mxGeometry x="330" y="250" width="140" height="60" as="geometry" />
        </mxCell>
        <mxCell id="Br_wjNeipKaUoqd5Id-3-8" value="" style="edgeStyle=orthogonalEdgeStyle;rounded=0;orthogonalLoop=1;jettySize=auto;html=1;" edge="1" parent="WIyWlLk6GJQsqaUBKTNV-1" source="Br_wjNeipKaUoqd5Id-3-5">
          <mxGeometry relative="1" as="geometry">
            <mxPoint x="400" y="450" as="targetPoint" />
          </mxGeometry>
        </mxCell>
        <mxCell id="Br_wjNeipKaUoqd5Id-3-5" value="&lt;div style=&quot;background-color:#1e1f22;color:#bcbec4&quot;&gt;&lt;pre style=&quot;font-family:&#39;JetBrains Mono&#39;,monospace;font-size:9,8pt;&quot;&gt;&lt;span style=&quot;color:#cf8e6d;&quot;&gt;for &lt;/span&gt;j &lt;span style=&quot;color:#cf8e6d;&quot;&gt;in &lt;/span&gt;&lt;/pre&gt;&lt;pre style=&quot;font-family:&#39;JetBrains Mono&#39;,monospace;font-size:9,8pt;&quot;&gt;&lt;span style=&quot;color:#8888c6;&quot;&gt;range&lt;/span&gt;(&lt;span style=&quot;color:#2aacb8;&quot;&gt;0&lt;/span&gt;, &lt;span style=&quot;color:#8888c6;&quot;&gt;len&lt;/span&gt;(matrix) - i - &lt;span style=&quot;color:#2aacb8;&quot;&gt;1&lt;/span&gt;)&lt;/pre&gt;&lt;/div&gt;" style="whiteSpace=wrap;html=1;" vertex="1" parent="WIyWlLk6GJQsqaUBKTNV-1">
          <mxGeometry x="300" y="350" width="200" height="60" as="geometry" />
        </mxCell>
        <mxCell id="Br_wjNeipKaUoqd5Id-3-12" value="" style="edgeStyle=orthogonalEdgeStyle;rounded=0;orthogonalLoop=1;jettySize=auto;html=1;" edge="1" parent="WIyWlLk6GJQsqaUBKTNV-1" source="Br_wjNeipKaUoqd5Id-3-9" target="Br_wjNeipKaUoqd5Id-3-11">
          <mxGeometry relative="1" as="geometry" />
        </mxCell>
        <mxCell id="Br_wjNeipKaUoqd5Id-3-9" value="&lt;div style=&quot;background-color:#1e1f22;color:#bcbec4&quot;&gt;&lt;pre style=&quot;font-family:&#39;JetBrains Mono&#39;,monospace;font-size:9,8pt;&quot;&gt;&lt;span style=&quot;color:#cf8e6d;&quot;&gt;if &lt;/span&gt;matrix[j][column] &amp;gt; matrix[j + &lt;span style=&quot;color:#2aacb8;&quot;&gt;1&lt;/span&gt;][column]&lt;/pre&gt;&lt;/div&gt;" style="rhombus;whiteSpace=wrap;html=1;" vertex="1" parent="WIyWlLk6GJQsqaUBKTNV-1">
          <mxGeometry x="220" y="450" width="360" height="130" as="geometry" />
        </mxCell>
        <mxCell id="Br_wjNeipKaUoqd5Id-3-14" style="edgeStyle=orthogonalEdgeStyle;rounded=0;orthogonalLoop=1;jettySize=auto;html=1;exitX=0;exitY=0.5;exitDx=0;exitDy=0;entryX=0.027;entryY=0.39;entryDx=0;entryDy=0;entryPerimeter=0;" edge="1" parent="WIyWlLk6GJQsqaUBKTNV-1" source="Br_wjNeipKaUoqd5Id-3-9" target="Br_wjNeipKaUoqd5Id-3-1">
          <mxGeometry relative="1" as="geometry">
            <mxPoint x="310" y="190" as="targetPoint" />
            <mxPoint x="180" y="680" as="sourcePoint" />
            <Array as="points">
              <mxPoint x="100" y="515" />
              <mxPoint x="100" y="183" />
            </Array>
          </mxGeometry>
        </mxCell>
        <mxCell id="Br_wjNeipKaUoqd5Id-3-17" value="" style="edgeStyle=orthogonalEdgeStyle;rounded=0;orthogonalLoop=1;jettySize=auto;html=1;" edge="1" parent="WIyWlLk6GJQsqaUBKTNV-1" source="Br_wjNeipKaUoqd5Id-3-11" target="Br_wjNeipKaUoqd5Id-3-16">
          <mxGeometry relative="1" as="geometry" />
        </mxCell>
        <mxCell id="Br_wjNeipKaUoqd5Id-3-11" value="&lt;div style=&quot;background-color:#1e1f22;color:#bcbec4&quot;&gt;&lt;pre style=&quot;font-family:&#39;JetBrains Mono&#39;,monospace;font-size:9,8pt;&quot;&gt;matrix[j][column], matrix[j + &lt;span style=&quot;color:#2aacb8;&quot;&gt;1&lt;/span&gt;][column] = &lt;/pre&gt;&lt;pre style=&quot;font-family:&#39;JetBrains Mono&#39;,monospace;font-size:9,8pt;&quot;&gt;matrix[j + &lt;span style=&quot;color:#2aacb8;&quot;&gt;1&lt;/span&gt;][column], matrix[j][column]&lt;/pre&gt;&lt;/div&gt;" style="whiteSpace=wrap;html=1;" vertex="1" parent="WIyWlLk6GJQsqaUBKTNV-1">
          <mxGeometry x="240" y="640" width="320" height="60" as="geometry" />
        </mxCell>
        <mxCell id="Br_wjNeipKaUoqd5Id-3-13" value="True" style="text;html=1;align=center;verticalAlign=middle;resizable=0;points=[];autosize=1;strokeColor=none;fillColor=none;" vertex="1" parent="WIyWlLk6GJQsqaUBKTNV-1">
          <mxGeometry x="389" y="598" width="50" height="30" as="geometry" />
        </mxCell>
        <mxCell id="Br_wjNeipKaUoqd5Id-3-15" value="False" style="text;html=1;align=center;verticalAlign=middle;resizable=0;points=[];autosize=1;strokeColor=none;fillColor=none;" vertex="1" parent="WIyWlLk6GJQsqaUBKTNV-1">
          <mxGeometry x="150" y="490" width="50" height="30" as="geometry" />
        </mxCell>
        <mxCell id="Br_wjNeipKaUoqd5Id-3-16" value="return matrix" style="whiteSpace=wrap;html=1;" vertex="1" parent="WIyWlLk6GJQsqaUBKTNV-1">
          <mxGeometry x="340" y="780" width="120" height="60" as="geometry" />
        </mxCell>
      </root>
    </mxGraphModel>
  </diagram>
</mxfile>
